Patient4_TMGait_0pt3_01_right_10_EMG.mot
version=1
nRows=23
nColumns=33
inDegrees=no
endheader
time	1LAddLong	2LGlutMax	3LGlutMed	4LIliopsoas	5LSemiMemb	6LBicFemLong	7LRecFem	8LVastMed	9LVastLat	10LGasMed	11LTibAnt	12lTibPost	13LPeroneusLong	14LSol	15LExtDigLong	16LFlexDigLong	17RAddLong	18RGlutMax	19RGlutMed	20RIliopsoas	21RSemiMemb	22RBicFemLong	23RRecFem	24RVastMed	25RVastLat	26RGasMed	27RTibAnt	28RTibPost	29RPeroneusLong	30RSol	31RExtDigLong	32RFlexDigLong
17.44	0.013428	0.072784	-0.10605	0.022125	-0.082855	-0.32959	0.024414	0.001831	0.033722	0.028381	-0.078583	0.000153	-0.050507	-0.057068	-0.037842	-0.01709	0.018616	-0.006561	1.0497	-0.059814	0.051117	0.020142	0.19119	0.16266	-0.000305	-0.004272	-0.5101	-0.009918	-0.018921	0.019226	-0.000153	-0.00473
17.441	0.006561	0.13473	0.10574	0.024719	-0.060883	-0.66299	0.03418	0.000153	0.031281	0.10712	-0.026398	0.007629	0.13321	-0.03067	0.11978	-0.009155	0.000916	0.013885	0.93765	-0.14084	0.049286	0.005493	0.18158	0.13687	-0.002441	-0.003967	-0.11688	-0.000153	-0.042267	-0.043945	-0.002289	-0.002747
17.442	0.005341	0.15976	0.24979	-0.009003	0.055542	-0.72235	0.00824	0.000153	0.045013	0.056152	0.022736	0.000763	1.0956	0.067444	0.21271	-0.003662	-0.014038	0.047302	1.0603	-0.077057	0.047455	0.014038	0.16174	0.13931	0.009155	-0.000763	0.43732	-0.006409	0.01709	-0.12131	-0.003052	-0.010529
17.443	0.004272	0.18982	0.10132	-0.011749	0.056152	-0.62439	0.046234	0.009308	0.10071	0.067596	-0.048981	0.005493	-0.18646	0.17334	0.12344	-0.003662	0.005188	0.049591	1.1243	0.074768	0.040741	-0.027313	0.20905	0.11795	0.010986	0.000458	0.60989	-0.004578	0.030823	-0.086975	-0.00061	-0.011902
17.444	-0.003357	0.12207	0.18173	0.00885	0.032654	-0.63507	0.037079	0.011444	0.082855	0.12039	-0.065155	-0.001678	-0.63477	0.061951	-0.00824	0.005188	0.010376	0.002899	1.0927	0.20538	0.026398	-0.044403	0.24033	0.095978	-0.016785	-0.012207	0.1413	-0.004272	-0.25391	0.03006	-0.001831	-0.00351
17.445	-0.002136	0.13473	0.25848	0.005951	0.027161	-0.51209	0.023193	0.00824	0.033722	-0.11124	-0.045624	0.005341	-0.061951	-0.076599	-0.021973	0.007172	0.019989	-0.026398	0.93872	0.11353	0.007324	-0.08255	0.24597	0.047302	-0.036163	-0.009613	-0.046387	-0.003052	-0.074615	0.028534	0.001526	-0.009613
17.446	-0.002289	0.11719	0.083008	0.010529	-0.001526	-0.35141	0.014954	0.00824	-0.077362	-0.36957	0.011444	0.005951	-0.22858	-0.15396	0.030975	0.002136	0.018463	-0.058441	1.0869	-0.048065	-0.015869	-0.11276	0.21011	0.016327	-0.055695	-0.012817	0.029449	-0.005951	0.24246	-0.035248	-0.001068	-0.002747
17.447	-0.011139	0.034943	-0.013123	0.013123	-0.019073	-0.19836	-0.029755	-0.004272	-0.11932	-0.32272	-0.005035	0.005646	-0.12573	-0.32211	0.00885	-0.009308	0.003967	-0.072784	0.90546	-0.16068	-0.009003	-0.10468	0.22339	0.023956	-0.042572	-0.000305	0.36499	0.000305	0.13855	0.018005	-0.004578	-0.00412
17.448	0.004883	0.003967	-0.072327	-0.001526	-0.055542	-0.13748	-0.11826	-0.007019	-0.04364	-0.10544	0.053864	0.003815	-0.56076	-0.36011	-0.15747	-0.011292	-0.014648	-0.05661	0.77545	-0.13626	0.008545	-0.1088	0.17441	0.039368	-0.018158	-0.009003	0.23224	-0.001678	0.13519	-0.058594	-0.00061	-0.011292
17.449	0.002136	-0.048828	-0.13596	-0.00473	-0.062866	0.010071	-0.11917	0.00885	-0.05188	-0.007477	0.00885	0.000916	-0.58838	-0.39032	0.018158	-0.000763	0.001221	-0.10162	0.71991	-0.004883	0.015564	-0.11322	0.13657	0.062103	-0.021515	-0.003662	-0.082397	-0.002747	0.064087	-0.13519	0.001831	-0.010223
17.45	0.004425	-0.10178	-0.17685	-0.002136	-0.003662	0.13428	-0.16205	0.01236	-0.049591	-0.11688	-0.044708	-0.006714	0.24933	-0.00885	0.77591	-0.009003	0.075989	-0.11414	0.61874	0.18524	0.009766	-0.11536	0.15457	0.022583	-0.032501	-0.011597	-0.18127	-0.000763	-0.11795	-0.050049	-0.002899	-0.015106
17.451	0.016022	-0.1091	-0.1767	0.003052	0.063477	0.22736	-0.14816	-0.004425	0.063324	-0.1207	0.040131	0.012665	0.23377	0.045013	-0.20172	-0.00885	0.10773	-0.10437	0.62607	0.19989	0.003662	-0.097504	0.15366	0.009308	-0.030823	-0.009308	-0.38452	-0.001678	-0.11505	-0.040283	0.001068	-0.020599
17.452	0.014038	-0.011749	-0.078735	0.001221	0.030823	0.2533	-0.04715	-0.010223	0.15839	-0.007629	0.11307	0.014343	-0.24277	-0.081329	-0.41565	-0.013733	0.10132	-0.1059	0.71228	-0.033722	0.008698	-0.096588	0.16144	0.004883	-0.023346	0.001373	-0.85342	0.001984	0.018311	0.040894	0.001373	-0.010529
17.453	0.007172	0.1738	0.036469	0.000763	-0.014954	0.18585	0.036774	0.036774	0.080109	-0.020752	0.069733	0.012665	-0.12207	0.050964	-0.23712	-0.006561	0.067596	-0.10819	0.58792	-0.20279	0.015411	-0.081482	0.14893	0.034485	-0.010529	-0.002136	-0.17746	-0.00061	0.092163	0.0914	0.004425	-0.007629
17.454	0.00061	0.31082	0.007324	-0.011292	-0.040283	0.079193	0.045166	0.01709	-0.024872	-0.052185	-0.041351	0.004578	-0.052948	0.20264	-0.1416	-0.014496	0.032959	-0.17029	0.625	-0.18341	0.018005	-0.090942	0.17242	0.03006	-0.021667	-0.007935	0.50858	-0.002441	0.1561	0.005341	0.00351	-0.007782
17.455	0.00473	0.36194	0.11414	0.005493	-0.020752	-0.016937	0.049744	0.009003	-0.031128	-0.057068	-0.007629	0.012665	-0.002594	0.28931	-0.15945	0.001984	0.007629	-0.25421	0.61935	-0.12054	0.007172	-0.087738	0.11108	0.017242	-0.016937	-0.010834	-0.067291	-0.000763	0.1973	0.033264	0.000763	-0.012207
17.456	0.005188	0.35065	0.30228	0.014038	0.018311	0.004272	0.10773	0.024414	0.042725	-0.023651	0.034332	0.016785	0.032043	0.2095	-0.12299	-0.000916	-0.014038	-0.18066	0.64316	0.063019	0.01358	-0.068359	0.031891	0.02655	-0.001068	-0.013885	-0.35706	-0.004425	-0.036774	0.039215	-0.002289	-0.005035
17.457	0.014648	0.3714	0.11627	0.037537	-0.010071	0.10864	0.13397	0.021515	0.028381	-0.011597	0.071259	0.011292	-0.002441	0.15366	0.003967	-0.013123	0.002441	-0.14221	0.51422	0.10284	0.013428	-0.048523	0.09903	0.0383	0.019073	-0.012512	-0.19043	-0.002594	-0.071106	0.063477	-0.001526	-0.002594
17.458	0.011139	0.41061	0.036774	0.008087	-0.022888	0.066833	0.086517	0.014191	0.032501	-0.019226	0.037079	0.000916	0.02121	0.028229	0.017853	-0.003815	0.007019	-0.12344	0.50125	0.071106	0.0177	-0.031281	0.1506	0.055237	0.033875	-0.007782	-0.079041	-0.003204	-0.089569	0.12863	0.001068	-0.002136
17.459	0.001831	0.41596	0.053253	-0.008698	-0.021362	0.2095	0.067749	-0.012054	0.037231	0.007782	-0.036469	0.005035	0.01709	0.005951	0.11032	-0.010834	0.002747	-0.1236	0.58792	0.04303	0.031433	-0.005951	0.13519	0.066071	0.023193	-0.006104	0.2684	-0.00061	-0.177	0.21332	-0.003357	0.00473
17.46	0.001984	0.25864	0.052032	0.010071	-0.016479	0.056915	0.094299	-0.017242	0.025482	0.051575	-0.029144	0.005341	0.030365	0.054932	0.10819	-0.003052	0.002289	-0.10849	0.67459	0.12833	0.046387	-0.007172	0.13657	0.056152	0.016632	-0.006104	0.26993	-0.004425	-0.12421	0.15259	-0.001831	0.00061
17.461	0.003662	0.023499	-0.11581	0.007477	-0.015259	-0.088959	0.058594	-0.006714	0.002441	0.18723	-0.03479	-0.006866	0.061188	-0.001984	0.077362	0.004578	0.000763	-0.090942	0.67078	0.066681	0.04303	0.004883	0.11017	0.074005	0.021973	-0.002747	-0.053101	0.000305	0.057068	0.10452	-0.001831	-0.008545
17.462	0.001831	-0.14847	-0.096283	0.013123	-0.007629	-0.068817	0.029602	-0.011749	-0.010834	0.12405	-0.004425	-0.004883	0.030212	0.046082	0.065155	0.008698	-0.019531	-0.072784	0.33386	0.001984	0.063782	-0.019989	0.14969	0.092163	0.010071	0.000153	-0.20081	-0.003967	0.14496	0.10574	-0.007782	-0.009766
